<?xml version="1.0" encoding="utf-8"?>
<!-- Generator: Adobe Illustrator 23.1.0, SVG Export Plug-In . SVG Version: 6.00 Build 0)  -->
<svg version="1.1" id="github" xmlns="http://www.w3.org/2000/svg" xmlns:xlink="http://www.w3.org/1999/xlink" x="0px" y="0px"
	 viewBox="0 0 100 100" style="enable-background:new 0 0 100 100;" xml:space="preserve">
<style type="text/css">
	.st0{fill:#0399FF;}
	.st1{fill:#FFFFFF;}
</style>
<circle class="st0" cx="50" cy="50" r="48"/>
<g id="SRzPRm.tif">
	<g>
		<path class="st1" d="M49.9,78.9c-2.8,0-5.6,0-8.4,0c-2.6,0-5.2-0.1-7.8-0.6c-4.5-0.9-8-3.3-10.3-7.2c-1.3-2.2-2-4.6-2.2-7.1
			c-0.4-4-0.3-8-0.3-12c0-3.9,0-7.8,0.1-11.7c0-2.6,0.1-5.3,0.9-7.8c1.8-5.9,5.8-9.5,11.8-10.9c2.1-0.5,4.2-0.6,6.3-0.6
			c6.6,0,13.2,0,19.9,0c2.4,0,4.9,0.2,7.3,0.8c6.1,1.7,9.8,5.8,11.1,11.9c0.6,2.6,0.6,5.2,0.6,7.8c0,5.6,0,11.1,0,16.7
			c0,2.6,0,5.2-0.6,7.8c-1.5,6.7-5.5,10.8-12.2,12.3c-2.5,0.6-5.1,0.6-7.7,0.6C55.6,79,52.8,78.9,49.9,78.9z M26,49.9
			C26.1,49.9,26.1,49.9,26,49.9c0.1,2.3,0,4.6,0.1,6.9c0.1,2.7,0,5.4,0.5,8.1c0.8,4.2,3.3,7,7.5,8.1c1.9,0.5,3.9,0.6,5.8,0.6
			c6.6,0,13.3,0,19.9,0c1.6,0,3.3-0.1,4.9-0.4c4.3-0.8,7.1-3.2,8.2-7.5c0.5-2,0.6-4,0.6-6.1c0-6.5,0-13,0-19.5
			c0-1.7-0.1-3.5-0.4-5.2c-0.8-4.2-3.2-7-7.4-8.2c-1.8-0.5-3.7-0.6-5.5-0.6c-6.9,0-13.8,0-20.7,0c-1.7,0-3.4,0.2-5.1,0.5
			c-3.5,0.7-5.9,2.7-7.3,6c-0.7,1.7-0.9,3.4-1,5.2C26.2,42,26.1,46,26,49.9z"/>
		<path class="st0" d="M26,49.9c0.1-4,0.1-8,0.3-12c0-1.8,0.3-3.5,1-5.2c1.3-3.3,3.8-5.3,7.3-6c1.7-0.3,3.4-0.5,5.1-0.5
			c6.9-0.1,13.8,0,20.7,0c1.9,0,3.7,0.1,5.5,0.6c4.2,1.2,6.6,4,7.4,8.2c0.3,1.7,0.4,3.4,0.4,5.2c0,6.5,0,13,0,19.5
			c0,2-0.1,4.1-0.6,6.1c-1.2,4.2-4,6.7-8.2,7.5c-1.6,0.3-3.3,0.4-4.9,0.4c-6.6,0-13.3,0-19.9,0c-2,0-3.9-0.1-5.8-0.6
			c-4.2-1.1-6.7-3.9-7.5-8.1c-0.5-2.7-0.5-5.4-0.5-8.1C26.1,54.5,26.1,52.2,26,49.9C26.1,49.9,26.1,49.9,26,49.9z M49.9,35
			C41.8,35,35.1,41.6,35,49.8c-0.1,8.3,6.5,15,14.8,15.1c8.3,0.1,15-6.5,15-14.8C64.9,41.8,58.3,35.1,49.9,35z M68.9,34.5
			c0-1.9-1.5-3.5-3.4-3.5c-1.9,0-3.5,1.5-3.5,3.4c0,1.9,1.5,3.5,3.5,3.5C67.3,38,68.9,36.4,68.9,34.5z"/>
		<path class="st1" d="M49.9,35c8.4,0.1,15,6.7,14.9,15c-0.1,8.2-6.8,14.8-15,14.8C41.6,64.8,35,58.1,35,49.8
			C35.1,41.6,41.8,35,49.9,35z M50,40.2c-5.4,0-9.7,4.3-9.7,9.7c0,5.3,4.3,9.7,9.7,9.7c5.4,0,9.7-4.3,9.7-9.7
			C59.6,44.6,55.3,40.3,50,40.2z"/>
		<path class="st1" d="M68.9,34.5c0,1.9-1.6,3.5-3.5,3.5c-1.9,0-3.5-1.6-3.5-3.5c0-1.9,1.6-3.5,3.5-3.4C67.4,31,68.9,32.6,68.9,34.5
			z"/>
		<path class="st0" d="M50,40.2c5.4,0,9.7,4.3,9.7,9.7c0,5.4-4.3,9.7-9.7,9.7c-5.4,0-9.7-4.4-9.7-9.7C40.3,44.6,44.6,40.2,50,40.2z"
			/>
	</g>
</g>
</svg>
